<svg width="64" height="64" viewBox="0 0 64 64" fill="none" xmlns="http://www.w3.org/2000/svg">
<rect x="1" y="1" width="62" height="62" rx="11" fill="#0F172A" stroke="#383838" stroke-width="2"/>
<path d="M10.5852 22.2188V18.8182H30.848V22.2188H22.679V45H18.7415V22.2188H10.5852ZM49.6055 25.696C49.4691 24.4858 48.9066 23.5483 47.918 22.8835C46.9293 22.2102 45.685 21.8736 44.185 21.8736C43.1112 21.8736 42.1822 22.044 41.3981 22.3849C40.614 22.7173 40.0046 23.1776 39.57 23.7656C39.1438 24.3452 38.9308 25.0057 38.9308 25.7472C38.9308 26.3693 39.0756 26.9062 39.3654 27.358C39.6637 27.8097 40.0515 28.1889 40.5288 28.4957C41.0146 28.794 41.5344 29.0455 42.0884 29.25C42.6424 29.446 43.1751 29.608 43.6864 29.7358L46.2433 30.4006C47.0785 30.6051 47.935 30.8821 48.8129 31.2315C49.6907 31.581 50.5046 32.0412 51.2546 32.6122C52.0046 33.1832 52.6097 33.8906 53.07 34.7344C53.5387 35.5781 53.7731 36.5881 53.7731 37.7642C53.7731 39.2472 53.3896 40.5639 52.6225 41.7145C51.864 42.8651 50.7603 43.7727 49.3114 44.4375C47.8711 45.1023 46.1282 45.4347 44.0827 45.4347C42.1225 45.4347 40.4265 45.1236 38.9947 44.5014C37.5629 43.8793 36.4421 42.9972 35.6325 41.8551C34.8228 40.7045 34.3754 39.3409 34.2901 37.7642H38.2532C38.3299 38.7102 38.6367 39.4986 39.1737 40.1293C39.7191 40.7514 40.4137 41.2159 41.2575 41.5227C42.1097 41.821 43.043 41.9702 44.0572 41.9702C45.1737 41.9702 46.1665 41.7955 47.0359 41.446C47.9137 41.0881 48.604 40.5937 49.1069 39.9631C49.6097 39.3239 49.8612 38.5781 49.8612 37.7259C49.8612 36.9503 49.6396 36.3153 49.1964 35.821C48.7617 35.3267 48.1694 34.9176 47.4194 34.5938C46.6779 34.2699 45.8384 33.9844 44.9009 33.7372L41.8072 32.8935C39.7106 32.3224 38.0487 31.483 36.8214 30.375C35.6026 29.267 34.9933 27.8011 34.9933 25.9773C34.9933 24.4687 35.4023 23.152 36.2205 22.027C37.0387 20.902 38.1467 20.0284 39.5444 19.4062C40.9421 18.7756 42.5188 18.4602 44.2745 18.4602C46.0472 18.4602 47.6112 18.7713 48.9663 19.3935C50.3299 20.0156 51.4038 20.8722 52.1879 21.9631C52.9719 23.0455 53.381 24.2898 53.4151 25.696H49.6055Z" fill="white"/>
</svg>
