<svg width="39" height="38" viewBox="0 0 39 38" fill="none" xmlns="http://www.w3.org/2000/svg">
<rect width="39" height="38" rx="19" fill="#0F172A"/>
<path d="M19.472 14.168C19.5893 14.3067 19.648 14.4507 19.648 14.6C19.648 14.664 19.6427 14.7333 19.632 14.808C19.632 14.872 19.6267 14.9307 19.616 14.984C19.584 15.1013 19.5147 15.2133 19.408 15.32C19.3227 15.384 19.2053 15.432 19.056 15.464C18.9813 15.4853 18.9067 15.5013 18.832 15.512C18.7573 15.5227 18.6773 15.5387 18.592 15.56C18.5173 15.5707 18.4427 15.576 18.368 15.576C18.2933 15.576 18.2133 15.576 18.128 15.576H17.312C17.12 15.5867 16.928 15.592 16.736 15.592C16.5547 15.592 16.3733 15.592 16.192 15.592C16.2027 15.9227 16.208 16.28 16.208 16.664C16.208 17.0373 16.2027 17.4747 16.192 17.976C16.192 18.4773 16.1867 19.0587 16.176 19.72C16.176 20.3813 16.176 21.1493 16.176 22.024V23.24C16.176 23.3467 16.1813 23.4267 16.192 23.48C16.192 23.5227 16.192 23.5653 16.192 23.608C16.192 23.64 16.1867 23.6827 16.176 23.736C16.1547 23.832 16.1387 23.944 16.128 24.072C16.128 24.1253 16.1227 24.1787 16.112 24.232C16.1013 24.2747 16.0853 24.3227 16.064 24.376C16.0213 24.4187 16 24.4507 16 24.472L15.952 24.568C15.8987 24.6747 15.7973 24.776 15.648 24.872C15.4133 24.9893 15.152 25.016 14.864 24.952C14.6827 24.9307 14.544 24.8827 14.448 24.808C14.352 24.712 14.2827 24.616 14.24 24.52C14.176 24.4027 14.1387 24.2907 14.128 24.184C14.096 24.088 14.08 23.9867 14.08 23.88V15.656C14.016 15.656 13.8827 15.656 13.68 15.656C13.4773 15.656 13.2587 15.656 13.024 15.656C12.8 15.6453 12.5867 15.6347 12.384 15.624C12.1813 15.6133 12.0427 15.6027 11.968 15.592C11.904 15.5813 11.8027 15.5653 11.664 15.544C11.536 15.5227 11.4293 15.5013 11.344 15.48C11.12 15.416 10.944 15.3147 10.816 15.176C10.6987 15.0373 10.64 14.8827 10.64 14.712C10.64 14.648 10.64 14.584 10.64 14.52C10.64 14.456 10.6507 14.3973 10.672 14.344C10.704 14.216 10.7893 14.1093 10.928 14.024C10.9707 13.992 11.0347 13.9547 11.12 13.912C11.216 13.8587 11.3067 13.8213 11.392 13.8C11.52 13.7573 11.68 13.7253 11.872 13.704C11.9573 13.6933 12.0427 13.688 12.128 13.688C12.2133 13.688 12.304 13.688 12.4 13.688C12.7733 13.688 13.1253 13.688 13.456 13.688C13.7973 13.688 14.1547 13.6827 14.528 13.672C15.1467 13.6613 15.76 13.6613 16.368 13.672C16.9867 13.672 17.6 13.6827 18.208 13.704C18.3467 13.7147 18.48 13.7307 18.608 13.752C18.736 13.7733 18.864 13.8107 18.992 13.864C19.088 13.896 19.1787 13.9387 19.264 13.992C19.3493 14.0347 19.4187 14.0933 19.472 14.168ZM28.7249 20.344C28.7782 20.4933 28.8155 20.664 28.8369 20.856C28.8689 21.0373 28.8849 21.224 28.8849 21.416C28.8849 21.608 28.8689 21.8 28.8369 21.992C28.8155 22.1733 28.7835 22.3333 28.7409 22.472C28.5702 23.0693 28.2289 23.5707 27.7169 23.976C27.2049 24.3707 26.6182 24.6587 25.9569 24.84C25.3062 25.0213 24.6289 25.0853 23.9249 25.032C23.2315 24.9787 22.6129 24.8027 22.0689 24.504C21.7275 24.312 21.4342 24.0773 21.1889 23.8C20.9435 23.5227 20.7355 23.2133 20.5649 22.872C20.5009 22.7547 20.4582 22.6213 20.4369 22.472C20.4262 22.312 20.4422 22.1627 20.4849 22.024C20.5275 21.8747 20.5969 21.7467 20.6929 21.64C20.7889 21.5227 20.9222 21.4427 21.0929 21.4C21.1995 21.3787 21.3169 21.368 21.4449 21.368C21.5835 21.368 21.7169 21.3893 21.8449 21.432C21.9729 21.464 22.0902 21.5227 22.1969 21.608C22.3035 21.6827 22.3889 21.7893 22.4529 21.928C22.5702 22.152 22.7355 22.36 22.9489 22.552C23.1729 22.7333 23.4075 22.8827 23.6529 23C24.0049 23.1173 24.3569 23.1653 24.7089 23.144C25.0715 23.1227 25.3969 23.0427 25.6849 22.904C25.9835 22.7653 26.2235 22.5787 26.4049 22.344C26.5862 22.0987 26.6769 21.8213 26.6769 21.512C26.6769 21.256 26.6395 21.048 26.5649 20.888C26.4902 20.7173 26.3835 20.5787 26.2449 20.472C26.1169 20.3547 25.9569 20.2587 25.7649 20.184C25.5835 20.1093 25.3809 20.0453 25.1569 19.992C24.9009 19.9387 24.6395 19.9013 24.3729 19.88C24.1169 19.8587 23.8555 19.832 23.5889 19.8C23.3222 19.768 23.0609 19.7253 22.8049 19.672C22.5489 19.6187 22.2982 19.5387 22.0529 19.432C21.5622 19.2293 21.1889 18.92 20.9329 18.504C20.6769 18.088 20.5222 17.64 20.4689 17.16C20.4262 16.68 20.4849 16.2053 20.6449 15.736C20.8049 15.256 21.0609 14.8453 21.4129 14.504C21.7542 14.1947 22.1595 13.976 22.6289 13.848C23.1089 13.7093 23.6369 13.6293 24.2129 13.608C24.5329 13.5973 24.8529 13.608 25.1729 13.64C25.5035 13.672 25.8182 13.7253 26.1169 13.8C26.4262 13.8747 26.7089 13.9707 26.9649 14.088C27.2315 14.2053 27.4609 14.344 27.6529 14.504C27.7915 14.6107 27.9302 14.7547 28.0689 14.936C28.2075 15.1067 28.3142 15.2933 28.3889 15.496C28.4635 15.688 28.4849 15.8747 28.4529 16.056C28.4315 16.2373 28.3195 16.392 28.1169 16.52C27.9462 16.6267 27.7809 16.6747 27.6209 16.664C27.4715 16.6427 27.3275 16.5947 27.1889 16.52C27.0502 16.4347 26.9169 16.3387 26.7889 16.232C26.6609 16.1253 26.5435 16.0293 26.4369 15.944C26.1489 15.7307 25.7915 15.5867 25.3649 15.512C24.9382 15.4373 24.5382 15.4213 24.1649 15.464C23.9302 15.496 23.7115 15.5493 23.5089 15.624C23.3062 15.6987 23.1302 15.8 22.9809 15.928C22.8422 16.056 22.7302 16.216 22.6449 16.408C22.5702 16.5893 22.5435 16.7973 22.5649 17.032C22.5755 17.2027 22.6235 17.3467 22.7089 17.464C22.8049 17.5813 22.9169 17.6773 23.0449 17.752C23.1835 17.8267 23.3329 17.8853 23.4929 17.928C23.6529 17.9707 23.8129 18.0027 23.9729 18.024C24.4529 18.088 24.9329 18.136 25.4129 18.168C25.8929 18.2 26.3622 18.3067 26.8209 18.488C27.2902 18.6693 27.6902 18.9147 28.0209 19.224C28.3515 19.5333 28.5862 19.9067 28.7249 20.344Z" fill="white"/>
</svg>
